<?xml version="1.0" encoding="UTF-8" standalone="no"?>
<svg
   version="1.1"
   id="Layer_1"
   x="0px"
   y="0px"
   width="3250.23"
   viewBox="0 0 3250.23 3250.23"
   enable-background="new 0 0 4838 2721"
   xml:space="preserve"
   sodipodi:docname="okimaru-circle.svg"
   height="3250.23"
   inkscape:version="1.2.1 (9c6d41e410, 2022-07-14)"
   xmlns:inkscape="http://www.inkscape.org/namespaces/inkscape"
   xmlns:sodipodi="http://sodipodi.sourceforge.net/DTD/sodipodi-0.dtd"
   xmlns:xlink="http://www.w3.org/1999/xlink"
   xmlns="http://www.w3.org/2000/svg"
   xmlns:svg="http://www.w3.org/2000/svg"><defs
   id="defs756"><linearGradient
     id="linearGradient1671"
     inkscape:swatch="solid"><stop
       style="stop-color:#000000;stop-opacity:0;"
       offset="0"
       id="stop1669" /></linearGradient><linearGradient
     id="linearGradient1665"
     inkscape:swatch="solid"><stop
       style="stop-color:#000000;stop-opacity:1;"
       offset="0"
       id="stop1663" /></linearGradient><linearGradient
     id="linearGradient1659"
     inkscape:swatch="solid"><stop
       style="stop-color:#0000ff;stop-opacity:0;"
       offset="0"
       id="stop1657" /></linearGradient><linearGradient
     inkscape:collect="always"
     xlink:href="#linearGradient1665"
     id="linearGradient1661"
     x1="475.18042"
     y1="2968.3647"
     x2="4153.5244"
     y2="2968.3647"
     gradientUnits="userSpaceOnUse"
     gradientTransform="matrix(0.86972029,0,0,0.86972037,-389.06551,-954.00358)" /><linearGradient
     inkscape:collect="always"
     xlink:href="#linearGradient1671"
     id="linearGradient1673"
     x1="474.68042"
     y1="2968.3647"
     x2="4154.0244"
     y2="2968.3647"
     gradientUnits="userSpaceOnUse"
     gradientTransform="matrix(0.86972029,0,0,0.86972037,-389.06551,-954.00358)" /></defs><sodipodi:namedview
   id="namedview754"
   pagecolor="#ffffff"
   bordercolor="#000000"
   borderopacity="0.25"
   inkscape:showpageshadow="2"
   inkscape:pageopacity="0.0"
   inkscape:pagecheckerboard="0"
   inkscape:deskcolor="#d1d1d1"
   showgrid="false"
   inkscape:zoom="0.20526726"
   inkscape:cx="1934.0639"
   inkscape:cy="1373.8187"
   inkscape:window-width="1920"
   inkscape:window-height="1080"
   inkscape:window-x="0"
   inkscape:window-y="0"
   inkscape:window-maximized="1"
   inkscape:current-layer="Layer_1" />
<path
   fill="none"
   opacity="1"
   stroke="#000000"
   stroke-linecap="round"
   stroke-linejoin="round"
   stroke-width="5"
   d="m 1675.6556,2143.3619 c -24.5867,2.1894 -48.8624,6.8464 -73.5302,8.6104 -51.7091,3.6974 -103.1048,3.2072 -154.1722,-7.1271 -53.6771,-10.8623 -104.4024,-30.2167 -152.4797,-55.679 -28.1992,-14.9346 -55.4787,-31.9777 -81.0357,-51.6307 -21.5548,-16.5753 -42.6317,-33.529 -63.0969,-51.4606 -12.6052,-11.0449 -24.6978,-22.5216 -36.2721,-34.483 -17.9026,-18.5011 -34.2056,-38.4527 -50.6845,-58.2705 -15.9827,-19.2212 -30.226,-39.6524 -44.5403,-59.9429 -13.2634,-18.8013 -26.64543,-37.5761 -40.37513,-56.0046 -6.066,-8.1421 -12.8819,-16.1593 -20.0003,-23.7332 -24.2463,-25.7979 -52.1421,-47.7549 -76.4923,-73.4218 -30.7022,-32.3623 -49.9114,-69.5768 -50.2762,-115.2696 -0.2614,-32.7552 9.7964,-62.3623 25.5041,-90.5305 5.9941,-10.7491 12.994,-21.0771 14.2697,-33.9119 0.514,-5.1719 2.5195,-10.556 -2.9663,-14.0791 -5.2932,-3.3994 -10.5103,-0.9554 -15.4926,1.3793 -1.2255,0.5741 -2.4858,1.5038 -3.4298,2.2416 -11.0007,8.599 -20.9093,10.8931 -32.2413,-0.5697 -5.5618,-5.6263 -16.5825,-2.7363 -23.0414,3.2351 -12.0031,11.0972 -23.5556,22.7517 -36.2058,33.0572 -10.5769,8.6165 -22.7361,15.7277 -36.6394,16.9436 -19.4356,1.6996 -33.1419,-9.8984 -38.1469,-35.1497 -2.8811,-14.5361 1.362,-27.9408 7.0925,-40.9911 3.3983,-7.7391 6.9511,-15.2894 7.1101,-24.0577 0.1987,-10.9618 -5.4049,-17.1096 -16.339,-17.7389 -9.4561,-0.5443 -17.8277,2.8094 -26.1537,6.4529 -7.4861,3.276 -15.2472,5.264 -23.3381,6.3997 -11.1526,1.5655 -20.0497,-6.0537 -21.1014,-18.4599 -0.9344,-11.0245 0.059,-21.969 4.0472,-32.5448 2.5206,-6.6848 4.2962,-13.6492 6.444,-20.4762 2.4739,-7.8631 -0.1827,-12.9156 -7.7486,-16.3425 -22.8939,-10.3692 -24.5126,-13.1065 -23.3216,-38.8113 0.6776,-14.6258 1.4087,-29.2751 2.9642,-43.8233 0.7601,-7.108 -0.3125,-13.4699 -2.8321,-20.5655 -11.1698,0.1282 -12.9939,9.56 -15.4897,16.3934 -9.6655,26.463 -15.0499,54.0529 -18.5699,81.9421 -8.9578,70.9715 -7.9182,141.7464 5.6401,212.1155 10.199,52.9342 30.2625,102.174 58.935,147.611 11.6498,18.4616 24.5669,36.2608 38.3797,53.3943 16.6167,20.6119 32.9129,41.441 50.2226,61.5152 12.4418,14.4286 25.1352,28.6408 37.4988,43.1129 47.5337,55.6403 100.7704,105.7148 152.3934,157.3458 15.5332,15.5356 31.8819,30.3686 48.1153,45.2024 17.981,16.4306 36.2827,32.5398 54.43383,48.8006 20.8951,18.7189 42.2327,36.9969 63.6067,55.181 16.8163,14.3064 33.5375,28.8136 50.9164,42.4027 17.4587,13.6517 34.2532,28.1215 51.8822,41.5878 11.635,8.8876 22.7583,18.75 34.404,27.6793 14.6897,11.2629 29.1134,22.9144 44.0638,33.8823 10.1826,7.4704 20.0106,15.7839 30.1431,23.4417 13.187,9.9662 26.6356,19.6968 39.857,29.5882 12.0981,9.0513 24.2341,18.1388 36.4229,27.0938 15.5411,11.4179 31.3807,22.4725 47.0317,33.7115 14.2275,10.2168 28.9106,19.8748 42.74,30.68 4.0068,3.1305 8.4491,5.7032 12.6918,8.5317"
   id="path681"
   style="stroke-width:60;stroke-dasharray:none" />
<path
   fill="none"
   opacity="1"
   stroke="#000000"
   stroke-linecap="round"
   stroke-linejoin="round"
   stroke-width="5"
   d="m 2401.8543,1461.0039 c -5.8941,-13.24 -15.6465,-23.9861 -23.4654,-35.9772 -10.3514,-15.8746 -21.7341,-31.0936 -32.7575,-46.4956 -8.7713,-12.2551 -17.953,-24.3571 -27.0926,-36.4145 -9.5916,-12.6537 -18.7757,-25.652 -28.0327,-38.5592 -6.6013,-9.2036 -13.9947,-18.0009 -20.9221,-27.0769 -11.8411,-15.5147 -23.6062,-31.1074 -35.6167,-46.4639 -8.4322,-10.7811 -17.2215,-21.4124 -25.6614,-32.2118 -9.3117,-11.915 -19.6194,-23.0434 -27.9819,-35.7718 -3.9799,-6.0574 -9.3357,-11.4356 -14.1891,-16.8805 -16.9262,-18.9878 -31.8559,-39.6023 -49.0109,-58.4211 -11.007,-12.0745 -21.1502,-25.0145 -31.8392,-37.448 -13.0744,-15.2079 -26.3984,-30.1729 -39.6023,-45.2544 -17.6025,-20.10502 -35.7825,-39.63812 -53.7805,-59.36792 -37.0967,-40.6675 -74.4195,-81.135 -114.264,-119.0836 -18.1059,-17.2448 -35.8505,-34.9139 -54.3774,-51.6823 -16.8266,-15.2297 -33.9593,-30.1489 -50.9553,-45.2011 -16.2604,-14.4004 -32.9679,-28.4362 -50.082,-41.8428 -36.9,-28.9068 -73.8668,-57.592 -115.7316,-79.5777 -51.4411,-27.0139 -106.2725,-40.5817 -163.4618,-47.2311 -67.1792,-7.811 -133.8511,-4.7292 -200.0883,8.0679 -17.3923,3.3603 -34.947,6.8041 -51.1073,15.0604 -2.6057,1.3313 -4.9813,2.6367 -6.8508,4.6131 -3.8531,4.0735 -2.6609,8.7291 2.7905,9.721 7.9275,1.4427 15.9632,0.9428 24.0288,0.2251 14.805,-1.3172 29.6174,-2.8266 44.5395,-2.2528 18.3998,0.7076 21.124,3.1466 27.7381,20.4723 4.2232,11.0622 8.5128,13.9957 20.2995,10.5167 12.904,-3.8086 25.1532,-9.7274 38.9221,-10.6548 3.0534,-0.2056 6.3434,-0.9821 9.1744,-0.3633 15.7364,3.4394 22.2507,5.0961 19.8405,25.313 -1.0042,8.4227 -4.4787,16.1169 -7.2168,23.9933 -1.472,4.2343 -3.1713,8.3493 -4.1429,12.7673 -4.3755,19.8956 3.4517,28.189 23.3746,24.7815 9.5963,-1.6414 18.005,-6.4237 26.8205,-10.035 17.5972,-7.2088 34.6823,-5.0538 50.8603,3.1302 15.9822,8.0846 20.185,29.2348 11.5109,47.9387 -6.2673,13.5144 -15.7298,24.5006 -25.5762,35.2906 -6.9682,7.6362 -14.2018,15.0305 -21.1694,22.6674 -6.0732,6.6567 -6.2177,14.0494 -0.7308,21.8983 9.5156,13.6122 9.2426,14.7548 0.1853,29.8103 -2.3632,3.9282 -4.6229,8.2804 -5.263,13.3071 -1.2699,9.9696 1.043,12.3961 11.4455,11.3713 13.9583,-1.375 25.6652,-8.2918 37.4543,-14.923 52.2445,-29.387 105.465,-35.9284 160.5762,-7.833 14.0891,7.1828 26.9956,15.7298 38.1502,26.9463 15.7485,15.8355 32.0639,31.141 47.2182,47.523 13.3903,14.4752 26.8371,28.8003 41.8668,41.5827 14.8904,12.6638 30.5337,24.2757 46.3834,35.74992 14.1943,10.2758 28.6699,20.2212 42.872,30.4969 13.1357,9.5038 25.6838,19.8215 39.3235,28.6817 5.5353,3.5959 10.3637,8.4986 15.469,12.7918 30.4019,25.5678 59.0186,53.2647 85.461,82.7613 46.714,52.1102 85.6372,109.9513 114.6252,173.7819 27.9871,61.6271 45.2153,126.2488 47.6335,194.3506 1.6704,47.0374 -2.3584,93.6368 -9.8247,140.0253 -0.5102,3.1693 -2.2155,6.5826 -0.1058,9.8824"
   id="path683"
   style="stroke-width:60;stroke-dasharray:none" />
<path
   fill="none"
   opacity="1"
   stroke="#000000"
   stroke-linecap="round"
   stroke-linejoin="round"
   stroke-width="5"
   d="m 2790.0559,2129.2198 c -10.8295,13.0592 -24.6907,21.8568 -39.503,29.8739 -25.5023,13.8025 -48.9853,30.8722 -73.0568,47.007 -22.7883,15.2743 -44.8699,31.5136 -66.843,47.8423 -15.0236,11.1645 -29.4401,23.3264 -44.2539,34.8108 -18.8397,14.6057 -36.3261,30.8277 -55.5241,44.9911 -7.4707,5.5113 -14.1693,12.2485 -21.1141,18.4652 -34.2868,30.6898 -69.6582,60.3777 -100.3869,94.7221 -16.9203,18.9115 -34.8036,37.0672 -49.9129,57.6382 -5.2983,7.2136 -11.9366,13.4886 -17.7539,20.4246 -16.3815,19.5331 -32.1968,39.4809 -48.0843,59.4063 -13.8242,17.3376 -27.627,34.7322 -40.518,52.7 -18.2023,25.3718 -36.635,50.5994 -52.9677,77.3633 -9.9135,16.2453 -22.523,31.1757 -30.2509,48.5317 -5.7459,12.904 -15.5879,21.2354 -24.5109,30.9039"
   id="path685"
   style="stroke-width:60;stroke-dasharray:none" />
<path
   fill="none"
   opacity="1"
   stroke="#000000"
   stroke-linecap="round"
   stroke-linejoin="round"
   stroke-width="5"
   d="m 2927.2346,1007.7484 c -1.5664,-9.45472 -8.5291,-15.90752 -13.6103,-23.21252 -11.9493,-17.178 -24.2952,-34.1491 -36.973,-50.7444 -12.2479,-16.033 -24.0474,-32.4294 -36.1124,-48.5806 -12.7649,-17.0887 -24.5127,-35.033 -36.6832,-52.5876 -12.9247,-18.643 -25.8566,-37.2884 -38.558,-56.0924 -16.6664,-24.6745 -32.5945,-49.8675 -47.1384,-75.7948 -18.7572,-33.439 -37.0308,-67.2645 -57.8965,-99.3186 -33.1777,-50.9675 -93.1928,-70.4144 -150.1085,-47.3535 -18.5225,7.5047 -34.3395,19.2334 -42.7604,39.2266 -8.7139,20.6888 5.2181,45.083 30.6389,47.334 16.0071,1.4171 31.1445,-3.0819 46.0281,-8.8555 4.9349,-1.9143 10.3566,-4.741 16.1853,-2.3228"
   id="path687"
   style="stroke-width:60;stroke-dasharray:none" />
<path
   fill="none"
   opacity="1"
   stroke="#000000"
   stroke-linecap="round"
   stroke-linejoin="round"
   stroke-width="5"
   d="m 624.18777,2565.5047 c -1.5969,-9.6255 3.8146,-17.5519 6.3903,-26.1551 3.1827,-10.6305 5.8082,-21.296 5.6801,-32.5354 -0.1729,-15.1771 -7.0319,-26.7886 -19.964,-33.7252 -13.4113,-7.1938 -25.7586,-3.578 -38.2408,5.1961 -24.1782,16.9953 -33.3529,41.7729 -36.9975,68.876 -3.9625,29.4666 3.8125,57.211 18.8858,82.6306 11.3601,19.1576 29.7208,31.2609 48.1245,42.2484 43.8722,26.1929 89.1393,50.0901 132.5394,77.016 24.6989,15.3235 48.6712,32.0861 72.6069,48.7606 20.3118,14.1499 40.9061,28.0197 61.0376,42.4003 15.8375,11.3133 31.4028,23.1886 47.0943,34.7677 15.7671,11.6349 31.4791,23.4107 47.6623,34.5364 8.2192,5.6505 16.9215,11.1602 24.1236,18.1935 3.4466,3.3657 6.8297,3.4118 10.77393,3.3643"
   id="path689"
   style="stroke-width:60;stroke-dasharray:none" />
<path
   fill="none"
   opacity="1"
   stroke="#000000"
   stroke-linecap="round"
   stroke-linejoin="round"
   stroke-width="5"
   d="m 1398.4697,2553.4839 c -1.8483,-8.4905 -8.4836,-14.3059 -12.285,-21.7861 -7.4616,-14.6833 -6.5084,-29.0864 5.2661,-40.385 13.2348,-12.7001 23.915,-28.9153 40.4909,-37.0459 14.2862,-7.0075 16.959,-19.2709 20.9111,-31.6183 13.1369,-41.0425 26.1555,-82.1451 42.031,-122.2109 5.6907,-14.3619 11.1623,-29.26 22.9712,-40.5245 4.6247,-4.4116 9.4228,-7.1995 15.6575,-8.4378 36.9155,-7.3325 74.2443,-12.4055 111.0318,-20.4259 58.8337,-12.8267 116.6307,-28.925 171.0939,-55.2114 32.6383,-15.7527 63.704,-34.2141 93.4225,-55.0181 19.0618,-13.3442 37.827,-26.9701 55.9765,-41.5875 20.0874,-16.178 40.0577,-32.4576 58.4001,-50.5384 18.592,-18.3275 34.6807,-38.9161 51.2839,-59.0683 15.8764,-19.27 30.7245,-39.2632 44.749,-59.7788 15.1309,-22.1342 28.8329,-45.2569 41.3801,-69.0639 22.7951,-43.2511 39.3739,-88.7941 52.2113,-135.826 14.0283,-51.395 23.5315,-103.7519 31.4216,-156.3311 3.1919,-21.271 15.0378,-32.7037 32.8944,-41.009 33.1299,-15.4094 68.1084,-25.6696 102.5534,-37.4292 12.2744,-4.1907 24.2637,-9.5981 36.8383,-12.4268 14.6918,-3.3049 26.6491,-9.364 33.8358,-22.941 5.4935,-10.3777 15.0172,-17.0477 22.7018,-25.4028 4.2837,-4.6574 8.9029,-9.0082 13.4038,-13.4635 11.6939,-11.5754 23.9192,-12.4781 39.0219,-5.2341 7.9229,3.8004 15.1058,8.4894 22.4928,13.0086"
   id="path691"
   style="stroke-width:60;stroke-dasharray:none" />
<path
   fill="none"
   opacity="1"
   stroke="#000000"
   stroke-linecap="round"
   stroke-linejoin="round"
   stroke-width="5"
   d="m 817.22797,1638.4877 c -3.2928,35.0394 6.5039,67.0268 22.6083,97.5908 11.4702,21.769 25.5063,41.6568 40.7577,61.0167 19.7378,25.0547 41.7385,47.847 64.7973,69.6003 17.4925,16.5023 35.9713,32.1198 55.13553,46.6481 23.6564,17.9337 47.4724,35.6865 71.7278,52.8717 27.3856,19.4029 55.089,38.3238 83.1033,56.7363 30.0524,19.7522 61.1542,37.9072 91.7837,56.7827 2.8653,1.7657 6.958,2.0731 7.7855,6.352"
   id="path693"
   style="stroke-width:60;stroke-dasharray:none" />
<path
   fill="none"
   opacity="1"
   stroke="#000000"
   stroke-linecap="round"
   stroke-linejoin="round"
   stroke-width="5"
   d="m 1634.6434,821.07218 c 43.9945,-1.7668 83.1359,12.5861 119.491,36.078 15.8697,10.2546 30.7986,21.6904 45.4525,33.6965 26.4528,21.6726 49.6443,46.6409 72.955,71.3143 16.02,16.957 30.734,35.4396 44.6248,54.49732 9.2641,12.7102 18.8888,25.3067 28.6134,37.7516 10.8038,13.8266 20.54,28.4335 30.9013,42.5817 11.2604,15.3764 20.428,32.2727 31.4472,47.8415 13.2043,18.6561 24.6057,38.4351 37.2289,57.446 11.1748,16.83 20.2476,35.0008 31.8847,51.5777 0.6351,0.9044 -0.5738,2.5409 0.7572,3.5003"
   id="path695"
   style="stroke-width:60;stroke-dasharray:none" />
<path
   fill="none"
   opacity="1"
   stroke="#000000"
   stroke-linecap="round"
   stroke-linejoin="round"
   stroke-width="5"
   d="m 1008.1468,2939.5642 c 4.8067,0.1851 8.1174,-2.2053 11.3871,-5.5859 11.1219,-11.4993 23.4947,-21.92 33.6501,-34.1922 15.7879,-19.0785 33.4432,-36.4976 48.4957,-56.2399 7.4444,-9.7635 16.4427,-18.4884 24.8841,-27.4135 19.4705,-20.586 38.2924,-41.7889 58.031,-62.1492 16.2292,-16.74 31.6108,-34.3862 48.4827,-50.519 31.574,-30.1911 63.2253,-60.3202 95.5424,-89.7075 14.8134,-13.4707 30.0656,-26.5704 45.4625,-39.3311 8.7047,-7.2143 15.8158,-17.0756 26.7629,-21.3516 4.6285,4.1847 2.637,8.5831 1.0726,12.3945 -13.1495,32.04 -24.4706,64.7304 -35.3965,97.5739 -0.5406,1.6254 -1.3187,3.5567 -1.752,5.0617 -7.8007,27.1028 -3.9453,34.0302 20.0715,51.8113 22.4616,16.6299 46.7494,30.6351 67.7259,49.5469 11.1683,10.069 22.5928,19.943 32.712,30.9532 24.405,26.5536 55.2076,39.0371 89.9521,44.4948 33.988,5.3389 68.1893,9.8224 101.1295,20.4149 23.5771,7.5814 45.2664,18.1805 64.5412,34.4126 24.9762,21.0337 42.9053,48.4067 66.7016,70.5341 20.8974,19.4319 44.7443,27.9624 72.4062,27.9135 15.853,-0.028 31.029,-5.1577 46.6488,-7.1606 4.9001,-0.6281 6.9376,-6.1479 10.6269,-9.0345"
   id="path697"
   style="stroke-width:60;stroke-dasharray:none" />
<path
   fill="none"
   opacity="1"
   stroke="#000000"
   stroke-linecap="round"
   stroke-linejoin="round"
   stroke-width="5"
   d="m 2444.9878,1446.1546 c 12.9542,0.8755 23.8514,-5.8664 35.3005,-10.0496 57.1598,-20.8846 114.0689,-42.4572 171.2499,-63.2827 8.0415,-2.9287 16.9361,-3.9653 25.3167,-6.1129 14.0588,-3.6024 24.1012,1.8394 31.7554,12.3635 11.5686,15.9064 22.3183,32.4107 33.3499,48.7052 7.1778,10.6022 14.7849,20.9721 23.4858,30.2675 16.1774,17.2831 34.131,32.9337 48.5835,51.8008 11.5516,15.0802 18.5742,32.466 22.5957,50.8813 6.2346,28.552 9.2535,57.6951 15.5482,86.2689 5.1721,23.4775 11.8402,46.1771 22.4304,68.0064 11.5677,23.8446 29.5186,42.0576 48.881,58.6748 6.3303,5.4333 11.6778,12.2261 18.7047,16.6707 7.2437,4.5821 13.0136,10.556 18.9797,16.4372 25.7809,25.4152 35.7645,56.0478 31.3043,91.9404 -1.4039,11.2951 -6.1335,21.7613 -6.7146,33.2024 -0.2163,4.2605 -5.1225,6.05 -7.6126,9.2009"
   id="path699"
   style="stroke-width:60;stroke-dasharray:none" />
<path
   fill="none"
   opacity="1"
   stroke="#000000"
   stroke-linecap="round"
   stroke-linejoin="round"
   stroke-width="5"
   d="m 2568.0244,623.08228 c -7.3269,2.5996 -6.8882,10.8855 -11.3513,15.5202 -7.1664,7.4418 -14.6604,14.5686 -21.8307,22.0068 -2.11,2.1889 -4.3797,3.9475 -5.2973,7.6548 -1.7292,6.9873 -0.822,10.6473 5.9618,11.2871 14.2417,1.3436 28.2846,-1.65 42.4154,-2.7493 7.3011,-0.5679 14.5059,-3.8371 22.2877,-0.4903 2.0889,7.8708 -4.6699,11.1444 -8.9529,15.2542 -7.7646,7.4506 -11.2013,15.7954 -7.6511,26.2603 4.9743,14.6625 21.7537,28.3349 39.6779,18.5869 11.5425,-6.2773 22.6128,-13.2331 33.8707,-19.9343 11.6592,-6.9403 24.4738,-12.0164 36.5199,-2.6116 10.215,7.9756 18.9483,17.8831 25.7673,29.366 17.2533,29.0528 31.7161,59.5874 48.0272,89.1305 22.1249,40.0726 42.9319,80.8989 69.8054,118.2226 10.2388,14.2203 19.7944,28.9715 32.7874,40.7858 14.8578,13.50992 31.2752,23.78222 52.9419,17.83382 2.033,-0.5582 4.5117,-1.2308 6.2704,-0.5414 1.6415,0.6433 4.1332,-0.5483 5.1436,2.019 1.6913,5.2085 -0.5023,8.9793 -4.2982,12.6792 -12.1727,11.8651 -23.2631,24.9967 -36.3189,35.7622 -18.5945,15.3328 -35.5512,32.5099 -54.8035,47.1103 -9.5145,7.2158 -18.0657,15.9317 -26.7136,24.1656 -21.0067,20.001 -42.5539,39.4481 -63.5794,59.4238 -20.7919,19.7541 -41.8491,39.2496 -61.765,59.8711 -17.369,17.9847 -34.4632,36.2672 -51.4629,54.5872 -15.8769,17.1096 -31.3366,34.6802 -46.7788,52.2162 -11.7008,13.2872 -22.4361,27.4146 -34.5681,40.3893 -2.3858,2.5515 -9.0188,5.8961 -3.7826,11.7897"
   id="path701"
   style="stroke-width:60;stroke-dasharray:none" />
<path
   fill="none"
   opacity="1"
   stroke="#000000"
   stroke-linecap="round"
   stroke-linejoin="round"
   stroke-width="5"
   d="m 2901.7788,1011.9911 c -3.8218,6.916 -11.4865,9.4398 -17.2687,13.7414 -14.6063,10.8655 -27.7036,23.4996 -40.4042,36.069 -106.1399,105.0437 -211.5006,210.8749 -317.0841,316.4805 -2.1388,2.1391 -4.6908,3.9764 -5.6665,7.0615"
   id="path703"
   style="stroke-width:60;stroke-dasharray:none" />
<path
   fill="none"
   opacity="1"
   stroke="#000000"
   stroke-linecap="round"
   stroke-linejoin="round"
   stroke-width="5"
   d="m 1381.1456,2526.2602 c -3.9341,0.9393 -6.1984,4.0927 -8.8313,6.7251 -105.1321,105.1143 -210.5215,209.9741 -315.1124,315.6242 -17.3195,17.495 -35.2209,35.164 -48.0193,56.5036 -5.6569,9.4324 -5.8477,21.1592 -3.2176,32.3439 0.2536,1.0787 1.2852,2.6821 -0.6466,3.5214"
   id="path705"
   style="stroke-width:60;stroke-dasharray:none" />
<path
   fill="none"
   opacity="1"
   stroke="#000000"
   stroke-linecap="round"
   stroke-linejoin="round"
   stroke-width="5"
   d="m 673.68527,2605.1026 c 7.2328,-0.3392 10.3938,-6.4686 14.7968,-10.6615 9.6555,-9.1946 20.988,-10.2714 33.9935,-2.7734 9.4367,5.4405 14.3229,18.6152 11.35,29.7081 -3.9905,14.8888 -12.9903,27.1874 -21.4791,39.429 -14.3791,20.7356 -4.3779,40.5722 12.5659,53.0184 30.1875,22.1744 64.3846,36.4447 96.5782,54.5858 32.9085,18.544 66.6766,35.6746 98.756,55.5432 26.2091,16.2328 51.8823,33.8183 72.4104,57.5716 4.1209,4.7683 7.43483,10.0675 9.52203,15.7286 1.1712,3.1767 2.028,6.0979 4.5536,8.3706"
   id="path707"
   style="stroke-width:60;stroke-dasharray:none" />
<path
   fill="none"
   opacity="1"
   stroke="#000000"
   stroke-linecap="round"
   stroke-linejoin="round"
   stroke-width="5"
   d="m 1551.2048,599.04068 c -4.6602,26.2836 -15.1437,50.5951 -25.5207,74.9257 -1.7762,4.1645 -3.0379,8.4023 -4.2779,12.7269 -1.7143,5.9792 0.4132,10.6769 5.1436,13.2943 7.5921,4.2009 13.9243,9.4552 19.0272,16.4115 4.3366,5.9116 10.0218,8.0289 17.6493,8.0077 23.0963,-0.064 46.1004,-2.8247 69.3406,0.929 36.2538,5.8558 70.5898,17.1204 103.8995,32.0978 27.9758,12.5794 54.7861,27.2038 80.7486,43.6214 16.9903,10.7437 34.091,21.2187 50.0995,33.4089 3.7484,2.8545 8.4454,4.4524 11.2808,8.5286"
   id="path709"
   style="stroke-width:60;stroke-dasharray:none" />
<path
   fill="none"
   opacity="1"
   stroke="#000000"
   stroke-linecap="round"
   stroke-linejoin="round"
   stroke-width="5"
   d="m 838.44117,1883.1466 c -39.2001,-50.6425 -71.3082,-105.497 -95.2687,-164.8329 -18.2495,-45.1931 -29.1391,-91.9653 -22.9312,-141.3585 0.6087,-4.8437 -0.015,-9.9327 -0.6887,-14.8219 -0.7039,-5.1054 -1.6429,-9.3999 -8.197,-11.8458 -4.5939,-1.7144 -8.7457,-6.9273 -11.5889,-12.1647 -6.8385,-12.5973 -12.6716,-14.466 -26.0842,-9.2438 -26.275,10.2304 -51.9641,22.1637 -79.9003,27.5843"
   id="path711"
   style="stroke-width:60;stroke-dasharray:none" />
<path
   fill="none"
   opacity="1"
   stroke="#000000"
   stroke-linecap="round"
   stroke-linejoin="round"
   stroke-width="5"
   d="m 1979.0044,1657.5796 c -2.1212,-1.65 -4.5499,-3.0242 -6.3163,-4.9926 -16.1118,-17.9541 -36.1422,-30.0662 -58.0051,-39.6131 -7.8465,-3.4264 -15.4193,-7.2333 -21.3916,-13.948 -3.8202,-4.2946 -5.2593,-8.018 -3.4857,-13.604 3.0631,-9.6479 5.3656,-19.5513 12.6637,-28.1262 -49.7264,-46.8003 -102.4634,-89.5835 -161.4754,-124.364 -6.8011,8.0495 -7.7824,17.4946 -7.8217,26.659 -0.037,8.7507 3.6538,15.6847 13.1315,19.2566 21.9487,8.2716 44.7892,14.1509 65.2522,26.4787 14.9146,8.9849 29.4184,18.3336 43.0392,29.1647 11.5359,9.1729 23.6623,17.6518 33.7938,28.4359 2.2331,2.3767 5.6641,-0.3245 7.1768,2.7291"
   id="path713"
   style="stroke-width:60;stroke-dasharray:none" />
<path
   fill="none"
   opacity="1"
   stroke="#000000"
   stroke-linecap="round"
   stroke-linejoin="round"
   stroke-width="5"
   d="m 2212.7032,1695.4098 c -21.2532,-6.2311 -42.6525,-11.6421 -64.6815,-14.6337 -16.9211,-2.2984 -28.6345,3.273 -31.6311,24.9154 -2.2316,16.1176 -2.7231,32.4889 -3.6851,48.7651 -0.602,10.1848 -2.4068,20.1419 -5.8183,29.6579 -5.3415,14.8997 -16.6437,24.0259 -31.0105,29.7323 -8.5481,3.3953 -16.9931,6.9238 -24.7835,11.9684 -9.868,6.3903 -14.1613,15.9129 -15.3808,26.9414 -0.6358,5.7522 -1.6585,11.3524 -2.9425,16.9607 -2.0699,9.0412 -7.0092,15.3928 -16.2944,17.6487 -9.1667,2.2272 -18.3136,4.6281 -27.5859,6.308 -16.6542,3.0177 -30.34,11.4608 -42.3474,22.7752 -10.9121,10.2824 -21.089,21.3421 -31.9312,31.7025 -14.3197,13.6832 -22.4307,30.5968 -26.7792,49.5562 -1.6745,7.3004 -2.7321,14.6953 -4.8098,21.9629 -3.0175,10.5539 -9.112,16.7616 -19.9789,18.361 -3.5623,0.5243 -7.0621,1.9169 -10.613,2.0051 -21.0707,0.5241 -32.3135,13.2812 -39.6042,31.1968 -3.8315,9.4155 -7.2995,18.9205 -14.0579,26.9373 -12.9278,15.3349 -30.8325,17.229 -48.8677,19.0121 -16.9476,1.6756 -34.0746,1.2454 -50.9094,4.2631 -23.4756,4.2084 -24.2541,16.8967 -22.0209,36.0695 2.4285,20.853 8.6228,40.7396 14.242,60.7995"
   id="path715"
   style="stroke-width:60;stroke-dasharray:none" />
<path
   fill="none"
   opacity="1"
   stroke="#000000"
   stroke-linecap="round"
   stroke-linejoin="round"
   stroke-width="5"
   d="m 1561.8115,1899.41 c -9.6638,-12.0208 -19.503,-23.9055 -28.9539,-36.0915 -17.9963,-23.2044 -35.306,-46.8689 -45.2782,-74.9293 -4.0936,-11.5186 -7.9689,-23.1147 -12.0518,-34.6372 -3.9687,-11.2002 -9.4619,-15.2627 -21.1971,-15.5298 -8.8007,-0.2003 -17.5152,0.2562 -25.1687,6.5248 3.5161,10.7752 10.6895,19.5103 16.7964,28.7236 12.3515,18.6343 25.1477,36.9848 38.1913,55.1428 3.8815,5.4033 8.5007,10.4895 12.9336,15.3452 8.3367,9.1317 15.919,18.9263 24.0938,28.1658 9.5273,10.7682 19.2606,21.2798 29.2977,31.5509 3.9822,4.0751 1.4331,10.2893 5.8909,15.2707 4.2351,4.7325 8.6376,9.2624 13.1563,13.766 7.5547,7.5294 14.5784,15.5885 22.0106,23.2448 13.5125,13.9197 29.9562,24.0436 46.143,34.3503 2.3007,1.4648 6.8705,5.8548 11.2073,0.3969 9.1416,-11.5045 21.2157,-10.591 33.8635,-7.2216 9.4295,2.5119 16.5248,9.0153 23.8092,14.4984 16.7698,12.6232 34.651,22.538 54.6601,28.7085"
   id="path717"
   style="stroke-width:60;stroke-dasharray:none" />
<path
   fill="none"
   opacity="1"
   stroke="#000000"
   stroke-linecap="round"
   stroke-linejoin="round"
   stroke-width="5"
   d="m 1773.9434,2937.4428 c -17.3126,6.2538 -35.8444,8.1033 -53.0487,14.8091 -13.6849,5.3339 -26.6772,11.2458 -37.667,21.7447 -11.0502,10.5564 -13.9356,22.4982 -12.7148,37.0016 1.05,12.4758 4.1447,24.3946 8.1228,35.9943 12.1561,35.4459 20.3562,72.07 32.4902,107.4928 4.2055,12.2771 8.3091,24.7284 14.8684,36.0239 2.1726,3.7415 -1.9828,3.1916 -2.2554,5.0276"
   id="path719"
   style="stroke-width:60;stroke-dasharray:none" />
<path
   fill="none"
   opacity="1"
   stroke="#000000"
   stroke-linecap="round"
   stroke-linejoin="round"
   stroke-width="5"
   d="m 1706.7683,2847.6403 c 6.0026,-33.9565 7.2344,-67.6865 -3.4666,-101.1382 -8.0007,-25.0103 -20.7258,-47.0505 -36.4888,-68.122 -17.6569,-23.6032 -41.1373,-39.4404 -64.7598,-55.5066 -6.4345,-4.3762 -12.125,-1.2238 -18.45,2.5179 -23.434,13.8622 -36.9676,33.043 -36.7047,61.0291 0.1614,17.1928 3.708,33.9147 10.2992,49.3536 9.9386,23.2792 23.2261,44.8164 42.0721,62.3885 27.6067,25.7408 58.9294,39.9792 97.6242,32.6398 3.2178,-0.6104 6.9043,-2.6237 10.228,0.2209"
   id="path721"
   style="stroke-width:60;stroke-dasharray:none" />
<path
   fill="none"
   opacity="1"
   stroke="#000000"
   stroke-linecap="round"
   stroke-linejoin="round"
   stroke-width="5"
   d="m 2842.3818,1712.0268 c -5.392,0.9035 -10.7369,2.8928 -17.0968,0.9659 -0.3136,-10.7031 2.4585,-20.9192 2.4621,-31.3713 0.011,-28.3805 -11.0059,-51.6045 -29.8155,-72.214 -22.2038,-24.3286 -48.2081,-42.1196 -79.958,-51.6716 -17.0366,-5.1257 -33.9609,-7.9141 -51.668,-4.8453 -20.5477,3.5612 -33.7817,16.9534 -44.2085,33.481 -1.7586,2.7879 -4.5264,5.4373 -5.2824,8.9827"
   id="path723"
   style="stroke-width:60;stroke-dasharray:none" />
<path
   fill="none"
   opacity="1"
   stroke="#000000"
   stroke-linecap="round"
   stroke-linejoin="round"
   stroke-width="5"
   d="m 3188.157,1731.1187 c -23.8702,-11.2141 -48.8031,-19.2828 -74.2025,-26.3209 -29.8853,-8.282 -59.3911,-17.9249 -89.1594,-26.6433 -15.582,-4.5632 -32.2743,-7.5004 -46.361,1.782 -12.7582,8.407 -21.7304,21.3309 -27.2808,36.2873 -6.2617,16.8732 -10.999,34.1029 -14.7729,51.6544 -0.6874,3.1975 -0.2956,6.9133 -3.4889,9.2024"
   id="path725"
   style="stroke-width:60;stroke-dasharray:none" />
<path
   fill="none"
   opacity="1"
   stroke="#000000"
   stroke-linecap="round"
   stroke-linejoin="round"
   stroke-width="5"
   d="m 2604.7939,1579.0907 c 10.3308,19.5255 19.3403,40.1344 33.5935,56.9715 12.4132,14.6636 26.0113,28.5142 41.8543,40.1908 19.6315,14.4694 40.7456,25.0225 63.835,32.2935 24.3303,7.6615 49.1847,8.0012 74.2657,6.3424 2.3716,-0.1568 4.6304,-0.2783 6.3617,-2.155"
   id="path727"
   style="stroke-width:60;stroke-dasharray:none" />
<path
   fill="none"
   opacity="1"
   stroke="#000000"
   stroke-linecap="round"
   stroke-linejoin="round"
   stroke-width="5"
   d="m 1795.1567,1978.606 c -14.601,-0.6088 -28.1385,-8.231 -43.1562,-6.5688 -1.2425,0.1375 -2.8058,-2.6235 -4.22,-4.0378 -9.6638,-9.6637 -20.2903,-18.5631 -28.7343,-29.1956 -9.3965,-11.8317 -19.4633,-23.1286 -28.2972,-35.5283 -7.7762,-10.9147 -15.4363,-23.1763 -28.5705,-29.23 -4.5675,-2.1053 -9.4116,-4.6263 -14.9788,-2.1553 -3.2598,14.0327 5.9844,24.3836 11.877,35.0823 5.7399,10.421 13.6492,20.2149 22.4554,28.2596 17.7555,16.2194 36.7409,31.0162 58.3424,42.2065 4.6463,2.4069 7.6703,2.6838 11.4415,-0.2468"
   id="path729"
   style="stroke-width:60;stroke-dasharray:none" />
<path
   fill="none"
   opacity="1"
   stroke="#000000"
   stroke-linecap="round"
   stroke-linejoin="round"
   stroke-width="5"
   d="m 2001.6318,1782.0304 c -6.0951,-5.6929 -11.412,-12.0543 -17.9179,-17.5257 -6.4277,-5.4058 -15.1283,-6.4932 -20.4271,-13.4645 -4.3971,-5.7847 -9.5736,-11.4436 -15.5517,-15.445 -7.9545,-5.3246 -13.9643,-12.5259 -21.1255,-18.5367 -10.8309,-9.0915 -22.4267,-17.2598 -33.6077,-25.8809 -9.6413,-7.4341 -19.2778,-15.9584 -24.7038,-27.3811 -1.2399,-2.6106 -5.0168,-6.2439 -1.1338,-10.5651 3.7834,-4.2099 7.4344,-2.404 11.4348,-1.3231 11.0611,2.988 20.2043,9.6916 29.63,15.6725 12.515,7.9416 22.6062,18.8514 32.4689,29.7082 13.0166,14.3289 22.7386,31.1641 33.1533,47.3952 2.0208,3.1491 1.8807,8.0099 -0.5037,11.8903"
   id="path731"
   style="stroke-width:60;stroke-dasharray:none" />
<path
   fill="none"
   opacity="1"
   stroke="#000000"
   stroke-linecap="round"
   stroke-linejoin="round"
   stroke-width="5"
   d="m 1819.9054,1823.7497 c 5.4184,12.0323 1.4877,19.6318 -10.6065,20.5061 -10.7907,0.7803 -11.8341,2.1019 -10.6067,13.435 1.6677,15.3979 0.02,17.8297 -14.8493,21.9202 -13.5067,3.7156 -16.5319,7.6752 -14.7599,21.9093 2.539,20.3974 11.5518,38.4332 21.8749,55.8466 3.1477,5.3096 6.663,10.2425 5.7102,17.0102 -0.5392,3.8302 2.0312,6.7185 3.9206,10.0147 4.9488,8.6335 2.7928,10.1864 -5.8622,16.5134 -5.7299,4.189 -12.4071,4.7633 -18.3313,8.1556 -12.6553,7.2467 -15.518,18.9842 -17.4309,30.4527 -1.383,8.2933 -3.5499,16.7084 -7.4323,22.9318 -10.8209,17.3456 -9.8376,34.9315 -5.8728,53.3395"
   id="path733"
   style="stroke-width:60;stroke-dasharray:none" />
<path
   fill="none"
   opacity="1"
   stroke="#000000"
   stroke-linecap="round"
   stroke-linejoin="round"
   stroke-width="5"
   d="m 1823.4409,1827.2852 c 4.4869,-0.648 8.9737,-1.296 13.5638,-1.9588 2.0056,-4.3894 3.6707,-8.7561 3.3947,-13.5969 -0.4113,-7.2148 3.7367,-8.4454 9.909,-8.5928 20.3846,-0.4875 21.0115,-0.4987 25.8759,-19.061 2.1511,-8.2082 7.4078,-9.9525 13.7344,-10.3917 14.5752,-1.0123 28.0537,4.1039 40.8944,9.996 9.3346,4.2831 18.793,8.687 27.082,15.1886 4.3967,3.449 9.9338,4.741 15.4525,1.5465"
   id="path735"
   style="stroke-width:60;stroke-dasharray:none" />
<path
   fill="none"
   opacity="1"
   stroke="#000000"
   stroke-linecap="round"
   stroke-linejoin="round"
   stroke-width="5"
   d="m 1554.0332,1905.774 c 7.7425,-6.655 17.3369,-9.0879 26.8933,-11.209 9.5811,-2.1264 15.1286,1.0849 19.7981,9.7829 8.8795,16.5405 15.7898,34.1209 26.787,49.5527 7.6141,10.6844 16.6879,20.123 24.8095,30.3623"
   id="path737"
   style="stroke-width:60;stroke-dasharray:none" />
<path
   fill="none"
   opacity="1"
   stroke="#000000"
   stroke-linecap="round"
   stroke-linejoin="round"
   stroke-width="5"
   d="m 1902.6369,1557.1704 c 6.2134,-0.8273 10.6329,1.8224 14.9432,6.2729 14.8401,15.3221 30.1758,30.1627 45.126,45.3801 10.1181,10.299 16.3723,23.3415 23.8261,35.475 1.1912,1.9391 2.5578,5.6269 -0.3264,9.1454 -12.7217,15.5194 -13.5922,29.2941 -2.1531,44.3661 15.8014,20.8195 29.7261,42.6018 38.7923,67.2499"
   id="path739"
   style="stroke-width:60;stroke-dasharray:none" />
<path
   fill="none"
   opacity="1"
   stroke="#000000"
   stroke-linecap="round"
   stroke-linejoin="round"
   stroke-width="5"
   d="m 615.70247,2573.99 c 15.8747,-10.2575 29.5087,-23.0843 42.4763,-36.7222 3.7292,-3.9221 8.5493,-5.639 14.33,-4.7652 5.0775,12.5453 2.0973,24.9636 1.1068,37.2391 -0.9506,11.7791 -4.7102,23.4194 -1.3542,35.3637 0.5209,1.854 -1.2879,2.4242 -2.1116,3.5328"
   id="path741"
   style="stroke-width:60;stroke-dasharray:none" />
<path
   fill="none"
   opacity="1"
   stroke="#000000"
   stroke-linecap="round"
   stroke-linejoin="round"
   stroke-width="5"
   d="m 1645.25,1994.1624 c 0.2493,11.5892 8.972,15.0746 17.6369,19.1778 25.9211,12.2753 53.4635,18.9934 81.3508,24.6982 4.5299,0.9267 8.964,2.3216 13.4423,3.5001"
   id="path743"
   style="stroke-width:60;stroke-dasharray:none" />
<path
   fill="none"
   opacity="1"
   stroke="#000000"
   stroke-linecap="round"
   stroke-linejoin="round"
   stroke-width="5"
   d="m 1988.9039,1650.5085 c 9.5108,-1.314 13.9208,5.5191 17.5493,12.0917 12.1896,22.0787 17.5191,46.6168 24.0906,70.6615 2.6051,9.5316 4.322,19.3059 6.4434,28.9697"
   id="path745"
   style="stroke-width:60;stroke-dasharray:none" />
<path
   fill="none"
   opacity="1"
   stroke="#000000"
   stroke-linecap="round"
   stroke-linejoin="round"
   stroke-width="5"
   d="m 1441.6033,2449.5392 c -0.032,15.0518 -7.9785,27.8411 -12.2445,41.6501 -5.187,16.7899 -11.9844,33.0857 -18.1911,49.5553 -1.8377,4.8762 -3.8354,9.7322 -7.7482,13.4464"
   id="path747"
   style="stroke-width:60;stroke-dasharray:none" />
<path
   fill="none"
   opacity="1"
   stroke="#000000"
   stroke-linecap="round"
   stroke-linejoin="round"
   stroke-width="5"
   d="m 1969.812,1757.2816 c -3.6759,5.2716 -2.1234,10.695 -0.7741,16.2797 1.6924,7.0039 4.2248,14.1698 3.9929,21.1864 -0.3341,10.1007 7.411,10.8292 13.1384,12.3958 6.5143,1.7818 9.3921,-4.0791 11.2036,-9.5621 1.5439,-4.6727 2.188,-10.098 4.5576,-13.9532 5.9753,-9.7223 14.0798,-17.179 26.5522,-18.724 11.1692,-1.3838 21.8141,-5.025 31.8715,-10.3903 13.0719,-6.9736 26.9907,-9.8089 41.6638,-6.327 3.3174,0.7873 6.5474,1.3723 9.9226,1.3165"
   id="path749"
   style="stroke-width:60;stroke-dasharray:none" />
<path
   fill="none"
   opacity="1"
   stroke="#000000"
   stroke-linecap="round"
   stroke-linejoin="round"
   stroke-width="5"
   d="m 1752.7302,1972.9492 c -3.1856,8.1848 5.6868,10.6886 8.3869,15.9511 3.5909,6.999 10.7086,12.6436 17.7761,17.2829"
   id="path751"
   style="stroke-width:60;stroke-dasharray:none" />
<circle
   style="opacity:1;mix-blend-mode:normal;fill:url(#linearGradient1673);fill-opacity:1;fill-rule:nonzero;stroke:url(#linearGradient1661);stroke-width:60;stroke-dasharray:none;paint-order:markers fill stroke"
   id="path926"
   cx="1623.7734"
   cy="1627.6438"
   r="1599.5652" /></svg>
